# xmcd CD database file
#
# Track frame offsets:
#	150
#	17897
#	38621
#	60236
#	83754
#	103858
#	127043
#	155983
#	173294
#	195636
#	217884
#
# Disc length: 3226 seconds
#
# Revision: 0
# Processed by: cddbd v1.5.2PL0 Copyright (c) Steve Scherf et al.
# Submitted via: CDex 1.51
#
DISCID=880c980b
DTITLE=Coco Montoya - I Want It All Back
DYEAR=2010
DGENRE=Blues
TTITLE0=Hey Senorita
TTITLE1=I Want It All Back
TTITLE2=Forever
TTITLE3=Cry Lonely
TTITLE4=As Close As I Have Come
TTITLE5=The Life Of My Broken Heart
TTITLE6=The One Who Really Loves You
TTITLE7=Fannie Mae
TTITLE8=Don' t Go Makin' Plans
TTITLE9=She's Gonna Need Somebody
TTITLE10=Somebody's Baby
EXTD=YEAR: 2010
EXTT0=
EXTT1=
EXTT2=
EXTT3=
EXTT4=
EXTT5=
EXTT6=
EXTT7=
EXTT8=
EXTT9=
EXTT10=
PLAYORDER=
